# xmcd
#
# Track frame offsets: 
#        150
#        19460
#        31555
#        51884
#        66406
#        88255
#        104818
#        123460
#        139870
#        157922
#        170704
#
# Disc length: 2493 seconds
#
# Revision: 0
# Processed by: cddbd v1.5.1PL0 Copyright (c) Steve Scherf et al.
# Submitted via: ExactAudioCopy v0.95a5
#
DISCID=9d09bb0b
DTITLE=Various Artist - Central Goldfields Songwriters
DYEAR=2004
DGENRE=Country
TTITLE0=Kirsty's Song
TTITLE1=Drinkin Blues
TTITLE2=Find Your Way
TTITLE3=StKilda Morning
TTITLE4=Story of an Angel
TTITLE5=Excuse Me
TTITLE6=Einstein
TTITLE7=Maybe We'll See
TTITLE8=Fade Away
TTITLE9=Turn On
TTITLE10=Hang
EXTD=
EXTT0=Kirsty's Song
EXTT1=
EXTT2=
EXTT3=
EXTT4=
EXTT5=
EXTT6=
EXTT7=
EXTT8=
EXTT9=
EXTT10=
PLAYORDER=
